#!OML:ASF F:\VICON\USERDATA\INSTALL\rory3\rory3.ASF
:FULLY-SPECIFIED
:DEGREES
27
root 0.8913309671008598 18.049520397862324 -4.7684856427561275 -3.7730002454439315 -3.2226516711473714 2.2130740290325934
lfemur -4.665535436765147 -2.2994956432063938 -27.57881521508983
ltibia 29.19788061777382
lfoot -14.32849174472566 3.769401395040746
ltoes 1.582535813478977
rfemur -27.155597899344812 0.30785764939266613 20.17767726525029
rtibia 71.99111394219607
rfoot -5.33273419480067 -4.124517072637796
rtoes 6.104197252988991
lowerback 10.886495544469666 0.6067020340263602 -2.0347261561362826
upperback 0.5845958949253137 0.5534164906527563 0.37440885868673557
thorax -5.412850131075963 0.3365332944513467 1.608426618555808
lowerneck -15.913780188890629 -2.733511630299098 -1.662195891401094
upperneck 22.449026485747332 -3.4168872993676422 0.136422902878657
head 9.828893778106268 -1.7149362361484901 -0.0699614973148292
lclavicle -1.307702021955043e-15 1.501336560016267e-15
lhumerus -30.621467084553665 0.298147286104327 83.29193803034646
lradius 24.371395164306552
lwrist 4.175971226269859
lhand -26.74555768012898 23.424825062182734
lfingers 7.12502
lthumb -0.17421850944195616 53.404786025227864
rclavicle -1.307702021955043e-15 1.501336560016267e-15
rhumerus -28.079609746018438 -16.741047067096453 -80.24439207006984
rradius 25.276622726555694
rwrist 4.812492061292964
rhand -16.49279165003279 21.885529106156874
rfingers 7.12502
rthumb 9.72467967254857 -7.868693015213986
28
root 0.8247625066435844 18.014378119935657 -5.64383500580975 -3.4000456370576835 -2.481681421187271 2.6868738180137197
lfemur -1.494953915119174 -2.286001475792449 -28.424981219199974
ltibia 26.285933167557737
lfoot -15.640722311185236 4.148012090829476
ltoes 1.958630878781261
rfemur -30.06174471185185 0.5616302146314327 19.47660168885623
rtibia 63.342585462096224
rfoot -6.432406441756815 -5.727469278523899
rtoes 3.376361137898105
lowerback 10.813136066101908 0.20518391001441733 -2.860701035633663
upperback 0.5542741310628374 -0.07641302349309731 0.4035277259255017
thorax -5.372832874199735 0.04591531186708486 2.1295924572131337
lowerneck -16.02875417596178 -2.7536100145096167 -1.7782963104022156
upperneck 22.289084707409398 -3.430165681215588 0.15760319130738643
head 9.790864275718214 -1.723295671524655 -0.056548238196600514
lclavicle -1.4288857261407065e-15 1.389603452222452e-15
lhumerus -28.949535487620228 -1.533260308358156 83.24545006278538
lradius 26.25241449977711
lwrist 5.009264971112204
lhand -27.048709523883527 23.746402236477227
lfingers 7.12502
lthumb -0.46700689160840947 53.72532455870678
rclavicle -1.4288857261407065e-15 1.389603452222452e-15
rhumerus -28.65518889706706 -16.20643539442771 -80.35015539567385
rradius 25.593804642618828
rwrist 4.181614088893231
rhand -16.567518976596094 22.43132299710586
rfingers 7.12502
rthumb 9.65258728734924 -7.325539878505442
29
root 0.7451999031268868 17.975858553982373 -6.0383456875616925 -2.9251669998333596 -1.8149420420954492 2.997974439146033
lfemur 1.129049567106689 -2.2145611864187535 -29.278462520988434
ltibia 22.39943558115303
lfoot -16.476467462446365 3.8679638068945428
ltoes 2.2464314343155256
rfemur -31.741659181670194 1.2766477648554528 18.306366117456207
rtibia 52.188421132839856
rfoot -6.762452386841709 -8.245180847895826
rtoes 0.1523659334054388
lowerback 10.521841891940106 -0.20106886960535253 -3.66931478766101
upperback 0.49636699080127256 -0.6962321874180524 0.42479480906042566
thorax -5.255907317249939 -0.2443150094429125 2.521109654809517
lowerneck -16.19351328645477 -2.779323230664814 -1.9206005521234832
upperneck 22.107657154897478 -3.4579091475788015 0.1794881243237998
head 9.753841902543073 -1.7348280466788162 -0.03334878686651144
lclavicle -1.9654503085327065e-15 8.955240960620468e-16
lhumerus -27.449966497188328 -3.316742911057627 83.16642564674366
lradius 27.92483295833521
lwrist 5.685625934224149
lhand -27.002974237102478 24.9174839418371
lfingers 7.12502
lthumb -0.4228573403523971 54.89373012043146
rclavicle -1.9654503085327065e-15 8.955240960620468e-16
rhumerus -29.224833687419167 -16.31000494008169 -80.34308422667578
rradius 25.61544562650648
rwrist 3.796593246679605
rhand -16.74579914317591 23.340212755799826
rfingers 7.12502
rthumb 9.480583048994681 -6.4245127703293345
30
root 0.6894927760002241 17.937772850587518 -5.696161188430411 -2.3898020402502245 -0.8944708895710507 3.4982027649017113
lfemur 5.427082618168553 -2.1581553191056275 -29.570536319721228
ltibia 18.227823941503463
lfoot -16.14428973020891 3.3003687169137903
ltoes 2.0362581037950833
rfemur -31.739531364202268 2.6940200062005193 17.15267602457859
rtibia 40.884723636366616
rfoot -5.942573082980514 -10.936559426158826
rtoes -2.967320691502358
lowerback 10.152407326291849 -0.5128547088352001 -4.354790642555728
upperback 0.42197347797638723 -1.1798734603437615 0.4917044154687167
thorax -5.073821659704532 -0.4705018019224936 3.07158482697801
lowerneck -16.339273789910845 -2.793578537622169 -1.973132638926932
upperneck 21.96248181524991 -3.4678450603018103 0.2292134309322198
head 9.735636481372847 -1.7394979458669582 -0.011890409452476713
lclavicle -1.6507985574626719e-15 1.1854742850365804e-15
lhumerus -25.82000956463075 -4.361481648473388 82.98215713316506
lradius 29.67253428763513
lwrist 6.64652030428204
lhand -27.229001356347467 25.911104055799953
lfingers 7.12502
lthumb -0.6411744866595267 55.88209526927588
rclavicle -1.6507985574626717e-15 1.1854742850365804e-15
rhumerus -29.7190359035858 -16.787677220562358 -79.85507367595298
rradius 25.284539729616228
rwrist 4.389942615396722
rhand -16.81512053687658 23.77826066070475
rfingers 7.12502
rthumb 9.413708092980599 -5.991571954575661
31
root 0.5797015173739449 17.88514283414237 -6.290605123231385 -1.9159072204893113 -0.18280184388385878 3.6567659969404374
lfemur 8.647383672952213 -2.2096900081048823 -30.0568288523474
ltibia 14.361427991710716
lfoot -16.24286921513071 1.957969713393793
ltoes 0.32205249986480355
rfemur -32.024455852002134 4.463973563421705 15.476026988061317
rtibia 28.74881683847913
rfoot -5.113696235938234 -13.796107016774158
rtoes -6.332096690613282
lowerback 9.72651596877235 -0.8941790776533897 -5.158485533786394
upperback 0.3512168848077819 -1.7501002229113731 0.5381446291149936
thorax -4.89141315296486 -0.7405583316728868 3.4241547333033764
lowerneck -16.472520252340257 -2.812416555358214 -2.0211583232454355
upperneck 21.822456572589655 -3.4987537461098115 0.23114790937105212
head 9.712286996847958 -1.7497550561312687 -0.015711893064687205
lclavicle -2.4421713166834534e-15 4.567230540324823e-16
lhumerus -24.404805275828615 -5.577713936139386 82.67417765666171
lradius 30.94499499168649
lwrist 7.277696603953535
lhand -27.59654884135166 26.472911773516834
lfingers 7.12502
lthumb -0.9961785438614377 56.43739659634178
rclavicle -2.4421713166834534e-15 4.567230540324823e-16
rhumerus -30.45266935775958 -18.301136761757466 -79.35619228760275
rradius 24.340899906787357
rwrist 5.226628394070961
rhand -16.975075471872156 23.750007391647376
rfingers 7.12502
rthumb 9.259346440871187 -6.024005914259451
32
root 0.49668895257313517 17.832168132104936 -4.795876902800709 -1.55109226536424 0.48992035234201925 3.8034335189141237
lfemur 11.644205046726267 -2.3611195922768506 -29.947868682364266
ltibia 12.112577099622836
lfoot -16.102701368539307 1.1340319752519024
ltoes -1.789011411221988
rfemur -31.11242497617024 5.847098237673974 14.592194391682552
rtibia 20.467468086043986
rfoot -4.194697462474473 -15.287975208173712
rtoes -8.988341555418003
lowerback 9.391662241070325 -1.1075155276584465 -5.47323613591092
upperback 0.3078542217312717 -2.0529795456037943 0.6344121376673766
thorax -4.715043669443039 -0.8876940881629696 3.7208987245626903
lowerneck -16.55211508208842 -2.815625953127861 -2.050304734474935
upperneck 21.740069891963895 -3.503249488669443 0.24952653047279216
head 9.701358211378235 -1.7501062190100873 -0.005549826184137352
lclavicle -2.482152032079279e-15 4.1988264741961877e-16
lhumerus -23.129616911991533 -5.926353667860378 82.38071407323471
lradius 31.794522889821884
lwrist 7.711284342617258
lhand -28.10360613600972 26.043745574933887
lfingers 7.12502
lthumb -1.4858993724535041 56.00352525703987
rclavicle -2.482152032079279e-15 4.1988264741961877e-16
rhumerus -30.92182466490649 -19.89065614075397 -78.63585911078276
rradius 23.362415127063564
rwrist 6.533213221972723
rhand -17.141775618175263 23.356668545684713
rfingers 7.12502
rthumb 9.098468542083255 -6.423867019689273
33
root 0.4406641733871858 17.787736666402484 -2.699963117995871 -1.390058777625367 0.9718820739052672 3.7054460085813177
lfemur 13.718517610349625 -2.7642970494132326 -29.4017590434754
ltibia 11.281455384007245
lfoot -15.836613110154428 0.720278858064348
ltoes -4.356945277694322
rfemur -29.784642238717286 6.491513322943124 14.65708045523379
rtibia 17.11765881586444
rfoot -4.010296707188653 -14.932489273563885
rtoes -9.348585969067544
lowerback 9.21626569874066 -1.198147038243953 -5.377802068318712
upperback 0.31573742532724663 -2.151761663007785 0.7776124357314865
thorax -4.580307560304429 -0.9416622246943442 3.8885855968830083
lowerneck -16.640250780858175 -2.817085030499058 -2.078076419104233
upperneck 21.646601855200835 -3.4993981516348915 0.28016906032120803
head 9.684112343596208 -1.7483033196788564 0.009797812865506031
lclavicle -2.236254767385673e-15 6.461347658203588e-16
lhumerus -22.3774319460367 -5.687439398688943 82.19463699267205
lradius 32.07002380179145
lwrist 7.958964444981685
lhand -28.387670280921412 25.96453967412298
lfingers 7.12502
lthumb -1.7602588269012578 55.921409917716396
rclavicle -2.236254767385673e-15 6.461347658203588e-16
rhumerus -31.219466885190823 -21.409056864285507 -77.77771823829775
rradius 22.543427201700442
rwrist 7.961477731249644
rhand -17.329042593019846 22.948248013936656
rfingers 7.12502
rthumb 8.917739692234884 -6.8406318691581065
34
root 0.360645579940752 17.765457247040523 -2.8439539678629036 -1.4864434366456973 1.5135462283321712 3.2652845959382657
lfemur 15.346710706959584 -3.474968443895121 -28.76082210977151
ltibia 11.724285175740881
lfoot -14.809741045617976 -0.8866854539466331
ltoes -9.147203726648792
rfemur -29.505498056927564 6.319439172609291 15.401151380202988
rtibia 16.714772727503963
rfoot -4.326680860828311 -12.91145866112708
rtoes -7.509348725158203
lowerback 9.12541431911481 -1.4044496494360406 -5.242863199297992
upperback 0.33836718532216126 -2.3962778657159007 1.0019570964271705
thorax -4.504023334028061 -1.0673168886160418 4.020066301035983
lowerneck -16.762494481788355 -2.8264844623056944 -2.09588895841969
upperneck 21.59982233354601 -3.4972077876146277 0.1668571958419267
head 9.686094409720061 -1.7522765341903448 -0.0236094447865815
lclavicle -2.4434491652955925e-15 4.551536241244497e-16
lhumerus -22.16159805863829 -5.469176459567211 82.23080564563521
lradius 31.91237871677518
lwrist 8.03199318067136
lhand -28.93505890865498 25.59937218976742
lfingers 7.12502
lthumb -2.2888932712095893 55.55510877358444
rclavicle -2.4434491652955925e-15 4.551536241244497e-16
rhumerus -31.858223376126524 -23.533848064405145 -76.52639411810244
rradius 21.43347755048818
rwrist 9.782728732612822
rhand -17.45932337581254 22.391344556337167
rfingers 7.12502
rthumb 8.792008875237915 -7.402244104667836
